<mxfile host="app.diagrams.net" modified="2024-06-19T11:55:38.651Z" agent="Mozilla/5.0 (Windows NT 10.0; Win64; x64) AppleWebKit/537.36 (KHTML, like Gecko) Chrome/125.0.0.0 Safari/537.36" etag="DoxlzX75z-5eND4OqW5y" version="24.5.5" type="device">
  <diagram name="Page-1" id="CBuR2NEDtOzpSzhoBUt1">
    <mxGraphModel dx="1035" dy="-299" grid="1" gridSize="10" guides="1" tooltips="1" connect="1" arrows="1" fold="1" page="0" pageScale="1" pageWidth="850" pageHeight="1100" math="0" shadow="0">
      <root>
        <mxCell id="0" />
        <mxCell id="1" parent="0" />
        <mxCell id="8mKQV_wl9Qt5RqTSCXE4-2" style="edgeStyle=orthogonalEdgeStyle;rounded=0;orthogonalLoop=1;jettySize=auto;html=1;exitX=0.5;exitY=1;exitDx=0;exitDy=0;" edge="1" parent="1" source="8mKQV_wl9Qt5RqTSCXE4-1" target="8mKQV_wl9Qt5RqTSCXE4-3">
          <mxGeometry relative="1" as="geometry">
            <mxPoint x="300" y="950" as="targetPoint" />
          </mxGeometry>
        </mxCell>
        <mxCell id="8mKQV_wl9Qt5RqTSCXE4-1" value="START" style="ellipse;whiteSpace=wrap;html=1;" vertex="1" parent="1">
          <mxGeometry x="240" y="800" width="120" height="80" as="geometry" />
        </mxCell>
        <mxCell id="8mKQV_wl9Qt5RqTSCXE4-4" style="edgeStyle=orthogonalEdgeStyle;rounded=0;orthogonalLoop=1;jettySize=auto;html=1;" edge="1" parent="1" source="8mKQV_wl9Qt5RqTSCXE4-3" target="8mKQV_wl9Qt5RqTSCXE4-6">
          <mxGeometry relative="1" as="geometry">
            <mxPoint x="440" y="950" as="targetPoint" />
          </mxGeometry>
        </mxCell>
        <mxCell id="8mKQV_wl9Qt5RqTSCXE4-3" value="definir quantum" style="rounded=1;whiteSpace=wrap;html=1;" vertex="1" parent="1">
          <mxGeometry x="240" y="920" width="120" height="60" as="geometry" />
        </mxCell>
        <mxCell id="8mKQV_wl9Qt5RqTSCXE4-7" style="edgeStyle=orthogonalEdgeStyle;rounded=0;orthogonalLoop=1;jettySize=auto;html=1;exitX=1;exitY=0.5;exitDx=0;exitDy=0;" edge="1" parent="1" source="8mKQV_wl9Qt5RqTSCXE4-6" target="8mKQV_wl9Qt5RqTSCXE4-8">
          <mxGeometry relative="1" as="geometry">
            <mxPoint x="620" y="950" as="targetPoint" />
          </mxGeometry>
        </mxCell>
        <mxCell id="8mKQV_wl9Qt5RqTSCXE4-6" value="inserir dados&amp;nbsp;" style="rhombus;whiteSpace=wrap;html=1;" vertex="1" parent="1">
          <mxGeometry x="410" y="910" width="120" height="80" as="geometry" />
        </mxCell>
        <mxCell id="8mKQV_wl9Qt5RqTSCXE4-9" style="edgeStyle=orthogonalEdgeStyle;rounded=0;orthogonalLoop=1;jettySize=auto;html=1;exitX=1;exitY=0.5;exitDx=0;exitDy=0;" edge="1" parent="1" source="8mKQV_wl9Qt5RqTSCXE4-8" target="8mKQV_wl9Qt5RqTSCXE4-10">
          <mxGeometry relative="1" as="geometry">
            <mxPoint x="750" y="950" as="targetPoint" />
          </mxGeometry>
        </mxCell>
        <mxCell id="8mKQV_wl9Qt5RqTSCXE4-8" value="Fila de processos prontos" style="rounded=1;whiteSpace=wrap;html=1;" vertex="1" parent="1">
          <mxGeometry x="560" y="920" width="120" height="60" as="geometry" />
        </mxCell>
        <mxCell id="8mKQV_wl9Qt5RqTSCXE4-11" style="edgeStyle=orthogonalEdgeStyle;rounded=0;orthogonalLoop=1;jettySize=auto;html=1;exitX=1;exitY=0.5;exitDx=0;exitDy=0;" edge="1" parent="1" source="8mKQV_wl9Qt5RqTSCXE4-10" target="8mKQV_wl9Qt5RqTSCXE4-12">
          <mxGeometry relative="1" as="geometry">
            <mxPoint x="890" y="950" as="targetPoint" />
          </mxGeometry>
        </mxCell>
        <mxCell id="8mKQV_wl9Qt5RqTSCXE4-13" value="SIM" style="edgeLabel;html=1;align=center;verticalAlign=middle;resizable=0;points=[];" vertex="1" connectable="0" parent="8mKQV_wl9Qt5RqTSCXE4-11">
          <mxGeometry x="-0.16" y="3" relative="1" as="geometry">
            <mxPoint as="offset" />
          </mxGeometry>
        </mxCell>
        <mxCell id="8mKQV_wl9Qt5RqTSCXE4-14" style="edgeStyle=orthogonalEdgeStyle;rounded=0;orthogonalLoop=1;jettySize=auto;html=1;exitX=0.5;exitY=1;exitDx=0;exitDy=0;" edge="1" parent="1" source="8mKQV_wl9Qt5RqTSCXE4-10" target="8mKQV_wl9Qt5RqTSCXE4-16">
          <mxGeometry relative="1" as="geometry">
            <mxPoint x="795" y="1050" as="targetPoint" />
          </mxGeometry>
        </mxCell>
        <mxCell id="8mKQV_wl9Qt5RqTSCXE4-15" value="NÃO" style="edgeLabel;html=1;align=center;verticalAlign=middle;resizable=0;points=[];" vertex="1" connectable="0" parent="8mKQV_wl9Qt5RqTSCXE4-14">
          <mxGeometry x="-0.1736" y="1" relative="1" as="geometry">
            <mxPoint as="offset" />
          </mxGeometry>
        </mxCell>
        <mxCell id="8mKQV_wl9Qt5RqTSCXE4-10" value="FILA VAZIA?" style="rhombus;whiteSpace=wrap;html=1;" vertex="1" parent="1">
          <mxGeometry x="740" y="910" width="110" height="80" as="geometry" />
        </mxCell>
        <mxCell id="8mKQV_wl9Qt5RqTSCXE4-12" value="ENCERRAR" style="ellipse;whiteSpace=wrap;html=1;" vertex="1" parent="1">
          <mxGeometry x="910" y="910" width="120" height="80" as="geometry" />
        </mxCell>
        <mxCell id="8mKQV_wl9Qt5RqTSCXE4-17" style="edgeStyle=orthogonalEdgeStyle;rounded=0;orthogonalLoop=1;jettySize=auto;html=1;exitX=0.5;exitY=1;exitDx=0;exitDy=0;" edge="1" parent="1" source="8mKQV_wl9Qt5RqTSCXE4-16" target="8mKQV_wl9Qt5RqTSCXE4-18">
          <mxGeometry relative="1" as="geometry">
            <mxPoint x="795" y="1160" as="targetPoint" />
          </mxGeometry>
        </mxCell>
        <mxCell id="8mKQV_wl9Qt5RqTSCXE4-16" value="Fila de Processos prontos" style="rounded=1;whiteSpace=wrap;html=1;" vertex="1" parent="1">
          <mxGeometry x="735" y="1060" width="120" height="60" as="geometry" />
        </mxCell>
        <mxCell id="8mKQV_wl9Qt5RqTSCXE4-19" style="edgeStyle=orthogonalEdgeStyle;rounded=0;orthogonalLoop=1;jettySize=auto;html=1;exitX=0;exitY=0.5;exitDx=0;exitDy=0;" edge="1" parent="1" source="8mKQV_wl9Qt5RqTSCXE4-18" target="8mKQV_wl9Qt5RqTSCXE4-20">
          <mxGeometry relative="1" as="geometry">
            <mxPoint x="640" y="1200" as="targetPoint" />
          </mxGeometry>
        </mxCell>
        <mxCell id="8mKQV_wl9Qt5RqTSCXE4-18" value="remove processo da fila de prontos" style="rhombus;whiteSpace=wrap;html=1;" vertex="1" parent="1">
          <mxGeometry x="736.25" y="1160" width="117.5" height="80" as="geometry" />
        </mxCell>
        <mxCell id="8mKQV_wl9Qt5RqTSCXE4-21" style="edgeStyle=orthogonalEdgeStyle;rounded=0;orthogonalLoop=1;jettySize=auto;html=1;" edge="1" parent="1" source="8mKQV_wl9Qt5RqTSCXE4-20" target="8mKQV_wl9Qt5RqTSCXE4-22">
          <mxGeometry relative="1" as="geometry">
            <mxPoint x="510" y="1200" as="targetPoint" />
          </mxGeometry>
        </mxCell>
        <mxCell id="8mKQV_wl9Qt5RqTSCXE4-20" value="Processo atual" style="rounded=1;whiteSpace=wrap;html=1;" vertex="1" parent="1">
          <mxGeometry x="580" y="1170" width="120" height="60" as="geometry" />
        </mxCell>
        <mxCell id="8mKQV_wl9Qt5RqTSCXE4-24" value="" style="edgeStyle=orthogonalEdgeStyle;rounded=0;orthogonalLoop=1;jettySize=auto;html=1;" edge="1" parent="1" source="8mKQV_wl9Qt5RqTSCXE4-22" target="8mKQV_wl9Qt5RqTSCXE4-23">
          <mxGeometry relative="1" as="geometry" />
        </mxCell>
        <mxCell id="8mKQV_wl9Qt5RqTSCXE4-22" value="executa com o quantum&amp;nbsp;" style="rhombus;whiteSpace=wrap;html=1;" vertex="1" parent="1">
          <mxGeometry x="470" y="1160" width="80" height="80" as="geometry" />
        </mxCell>
        <mxCell id="8mKQV_wl9Qt5RqTSCXE4-28" style="edgeStyle=orthogonalEdgeStyle;rounded=0;orthogonalLoop=1;jettySize=auto;html=1;exitX=0;exitY=0.5;exitDx=0;exitDy=0;" edge="1" parent="1" source="8mKQV_wl9Qt5RqTSCXE4-23" target="8mKQV_wl9Qt5RqTSCXE4-29">
          <mxGeometry relative="1" as="geometry">
            <mxPoint x="280" y="1200" as="targetPoint" />
          </mxGeometry>
        </mxCell>
        <mxCell id="8mKQV_wl9Qt5RqTSCXE4-23" value="resultado do processamento" style="rounded=1;whiteSpace=wrap;html=1;" vertex="1" parent="1">
          <mxGeometry x="320" y="1170" width="120" height="60" as="geometry" />
        </mxCell>
        <mxCell id="8mKQV_wl9Qt5RqTSCXE4-30" style="edgeStyle=orthogonalEdgeStyle;rounded=0;orthogonalLoop=1;jettySize=auto;html=1;exitX=0.5;exitY=1;exitDx=0;exitDy=0;entryX=0.5;entryY=1;entryDx=0;entryDy=0;" edge="1" parent="1" source="8mKQV_wl9Qt5RqTSCXE4-29" target="8mKQV_wl9Qt5RqTSCXE4-31">
          <mxGeometry relative="1" as="geometry">
            <mxPoint x="940" y="1240" as="targetPoint" />
          </mxGeometry>
        </mxCell>
        <mxCell id="8mKQV_wl9Qt5RqTSCXE4-32" value="sim" style="edgeLabel;html=1;align=center;verticalAlign=middle;resizable=0;points=[];" vertex="1" connectable="0" parent="8mKQV_wl9Qt5RqTSCXE4-30">
          <mxGeometry x="-0.2" y="-3" relative="1" as="geometry">
            <mxPoint as="offset" />
          </mxGeometry>
        </mxCell>
        <mxCell id="8mKQV_wl9Qt5RqTSCXE4-33" style="edgeStyle=orthogonalEdgeStyle;rounded=0;orthogonalLoop=1;jettySize=auto;html=1;exitX=0.5;exitY=0;exitDx=0;exitDy=0;entryX=0.5;entryY=1;entryDx=0;entryDy=0;" edge="1" parent="1" source="8mKQV_wl9Qt5RqTSCXE4-29" target="8mKQV_wl9Qt5RqTSCXE4-8">
          <mxGeometry relative="1" as="geometry" />
        </mxCell>
        <mxCell id="8mKQV_wl9Qt5RqTSCXE4-34" value="NÃO" style="edgeLabel;html=1;align=center;verticalAlign=middle;resizable=0;points=[];" vertex="1" connectable="0" parent="8mKQV_wl9Qt5RqTSCXE4-33">
          <mxGeometry x="0.0772" relative="1" as="geometry">
            <mxPoint as="offset" />
          </mxGeometry>
        </mxCell>
        <mxCell id="8mKQV_wl9Qt5RqTSCXE4-29" value="processo concluiu ?" style="rhombus;whiteSpace=wrap;html=1;" vertex="1" parent="1">
          <mxGeometry x="190" y="1160" width="80" height="80" as="geometry" />
        </mxCell>
        <mxCell id="8mKQV_wl9Qt5RqTSCXE4-35" style="edgeStyle=orthogonalEdgeStyle;rounded=0;orthogonalLoop=1;jettySize=auto;html=1;exitX=0.5;exitY=0;exitDx=0;exitDy=0;entryX=0.5;entryY=1;entryDx=0;entryDy=0;" edge="1" parent="1" source="8mKQV_wl9Qt5RqTSCXE4-31" target="8mKQV_wl9Qt5RqTSCXE4-12">
          <mxGeometry relative="1" as="geometry" />
        </mxCell>
        <mxCell id="8mKQV_wl9Qt5RqTSCXE4-31" value="Fila Processada" style="rounded=1;whiteSpace=wrap;html=1;" vertex="1" parent="1">
          <mxGeometry x="910" y="1170" width="120" height="60" as="geometry" />
        </mxCell>
      </root>
    </mxGraphModel>
  </diagram>
</mxfile>
